<svg width="653" height="653" viewBox="0 0 653 653" fill="none" xmlns="http://www.w3.org/2000/svg">
<g id="Icon Circle - Red w/DS">
<circle id="Ellipse" cx="326.5" cy="326.5" r="326.5" fill="#E1E1E1"/>
<g id="Logo Icon">
<path id="Vector" d="M444.395 113L239.674 186.375L283.182 255.868L440.899 200.74L444.395 113Z" fill="#FD9E39"/>
<path id="Vector_2" d="M171.693 283.821L94 331.311L278.909 501.23L339.898 450.372" fill="#FD9E39"/>
<path id="Vector_3" d="M374.86 475.995L444.396 113L516.65 181.328C519.369 183.658 520.535 187.54 519.758 191.034L446.555 543.461L374.86 475.995Z" fill="url(#paint0_linear)"/>
<path id="Vector_4" d="M224.282 501.647L204.916 379.727C204.036 373.125 204.916 372.245 211.518 373.565L330.357 392.491C335 393 335.5 395 333.438 397.773L314.26 416.984L446.726 543.547L362.429 566.064C358.933 567.229 355.048 566.064 351.941 564.123L254.047 479.877L231.5 503.5C227.5 507.5 225 507.5 224.282 501.647Z" fill="#CA4D16"/>
<path id="Vector_5" d="M268.297 146.451L374.567 175.83C380.5 177.5 380.5 179.5 378.5 183L325.5 274.973C322.5 280 320.356 279.948 317.153 274.973L303.771 250.045L94 331.311L126.631 229.081C127.796 225.198 131.293 222.093 136.343 220.54L275.779 173.3L263.015 150.412C261.695 147.164 262.941 144.857 268.297 146.451Z" fill="#CA4D16"/>
</g>
</g>
<defs>
<linearGradient id="paint0_linear" x1="433.785" y1="413.427" x2="481.024" y2="153.43" gradientUnits="userSpaceOnUse">
<stop stop-color="#FD9E39"/>
<stop offset="1" stop-color="#CA4D16"/>
</linearGradient>
</defs>
</svg>
